# xmcd CD database file
#
# Track frame offsets:
#	150
#	17703
#	34732
#	51006
#	70360
#	91745
#	107248
#	129086
#
# Disc length: 1976 seconds
#
# Revision: 1
# Processed by: cddbd v1.5.2PL0 Copyright (c) Steve Scherf et al.
# Submitted via: CDex 1.51
#
DISCID=5f07b608
DTITLE=SEVENTH-HEAVEN MAXION - Girl's Cheering 4U!
DYEAR=2012
DGENRE=東方アレンジ
TTITLE0=breathe in the sky feat.riraka
TTITLE1=虹色ぽっぱー feat.めらみぽっぷ
TTITLE2=七曜サーキュレーション feat.コツキミヤ
TTITLE3=超最強パートナーだもん！！ feat.梨本悠里、大瀬良あい
TTITLE4=Catch the wave feat.謎の人物K、久猫あむ
TTITLE5=WELCOME wonderland feat.えみぃ
TTITLE6=七月のライオン feat.珠梨
TTITLE7=You get one's desire! feat.井上みゆ
EXTD=YEAR: 2012
EXTT0=
EXTT1=
EXTT2=
EXTT3=
EXTT4=
EXTT5=
EXTT6=
EXTT7=
PLAYORDER=
